<svg xmlns="http://www.w3.org/2000/svg" xmlns:xlink="http://www.w3.org/1999/xlink" width="223" height="21" viewBox="0 0 223 21">
    <defs>
        <path id="a" d="M.645.934h17.256v19.673H.645z"/>
        <path id="c" d="M0 21.46h222.901V1H0z"/>
    </defs>
    <g fill="none" fill-rule="evenodd" transform="translate(0 -1)">
        <path fill="#232020" d="M91.756 5.44v-.056c0-1.742-1.349-3.092-3.12-3.092-1.995 0-3.4 1.406-3.4 3.176v.056c0 1.237.534 2.192 2.276 4.047 2.811-.899 4.244-2.276 4.244-4.13m.9 11.55l-5.818-6.014c-3.119 1.067-4.497 2.894-4.497 4.805v.056c0 2.39 1.912 4.244 4.61 4.244 2.191 0 4.075-1.18 5.704-3.09m3.851 3.99l-2.923-3.036c-1.855 2.164-4.019 3.401-6.66 3.401-3.458 0-6.043-2.248-6.043-5.452v-.057c0-2.64 1.883-4.58 5.086-5.76-1.489-1.659-2.19-2.867-2.19-4.497v-.057c0-2.529 2.05-4.468 4.917-4.468 2.558 0 4.525 1.911 4.525 4.271v.057c0 2.445-1.827 4.047-4.834 5.087l5.171 5.311c.871-1.237 1.658-2.698 2.361-4.328a.69.69 0 0 1 .646-.42c.393 0 .702.308.702.701a.98.98 0 0 1-.084.366c-.815 1.77-1.686 3.344-2.67 4.665l3.064 3.147c.224.225.337.366.337.675a.71.71 0 0 1-.73.731c-.31 0-.479-.14-.675-.338"/>
        <path fill="#165388" d="M99.303 11.285v-.056C99.303 5.496 103.716 1 109.673 1c4.019 0 6.605 1.685 8.347 4.103l-4.103 3.175c-1.124-1.405-2.417-2.304-4.3-2.304-2.754 0-4.693 2.332-4.693 5.2v.055c0 2.951 1.939 5.255 4.693 5.255 2.052 0 3.26-.955 4.44-2.388l4.104 2.923c-1.855 2.557-4.357 4.44-8.712 4.44-5.621 0-10.146-4.299-10.146-10.174"/>
        <path fill="#165388" d="M132.903 11.285v-.056c0-2.839-2.05-5.312-5.059-5.312-2.979 0-4.974 2.418-4.974 5.256v.056c0 2.84 2.052 5.312 5.031 5.312 3.007 0 5.002-2.417 5.002-5.256m-15.625 0v-.056C117.278 5.58 121.83 1 127.901 1c6.07 0 10.566 4.524 10.566 10.173v.056c0 5.65-4.552 10.23-10.623 10.23-6.07 0-10.566-4.525-10.566-10.174M139.129 1.393h5.452v14.896h9.527v4.777h-14.979zM154.858 1.393h5.453v14.896h9.527v4.777h-14.98zM170.587 1.393h15.823V6.03h-10.428V9.01h4.59v4.3h-4.59v3.119h10.569v4.637h-15.964z"/>
        <path fill="#165388" d="M186.24 11.285v-.056C186.24 5.496 190.651 1 196.61 1c4.018 0 6.604 1.685 8.346 4.103l-4.103 3.175c-1.124-1.405-2.417-2.304-4.3-2.304-2.754 0-4.693 2.332-4.693 5.2v.055c0 2.951 1.94 5.255 4.693 5.255 2.052 0 3.261-.955 4.44-2.388l4.103 2.923c-1.854 2.557-4.356 4.44-8.71 4.44-5.622 0-10.147-4.299-10.147-10.174"/>
        <g transform="translate(205 .46)">
            <mask id="b" fill="#fff">
                <use xlink:href="#a"/>
            </mask>
            <path fill="#165388" d="M6.548 5.712H.646V.934h17.256v4.778h-5.903v14.895H6.547z" mask="url(#b)"/>
        </g>
        <path fill="#165388" d="M178.464 11.137V7.138l3.463 2 3.463 2-3.463 2-3.463 1.998zM0 11.285v-.056C0 5.496 4.413 1 10.37 1c4.02 0 6.605 1.685 8.347 4.103l-4.103 3.175c-1.124-1.405-2.417-2.304-4.3-2.304-2.754 0-4.693 2.332-4.693 5.2v.055c0 2.951 1.94 5.255 4.693 5.255 2.051 0 3.26-.955 4.44-2.388l4.103 2.923c-1.854 2.557-4.356 4.44-8.71 4.44C4.524 21.46 0 17.16 0 11.285M19.509 1.393h5.452v14.896h9.527v4.777h-14.98z"/>
        <mask id="d" fill="#fff">
            <use xlink:href="#c"/>
        </mask>
        <path fill="#165388" d="M35.251 21.067h5.48V7.507h-5.48zM41.67 11.285v-.056C41.67 5.496 46.084 1 52.04 1c4.02 0 6.605 1.685 8.348 4.103l-4.103 3.175c-1.124-1.405-2.417-2.304-4.3-2.304-2.755 0-4.694 2.332-4.694 5.2v.055c0 2.951 1.94 5.255 4.694 5.255 2.051 0 3.26-.955 4.44-2.388l4.104 2.923c-1.856 2.557-4.358 4.44-8.713 4.44-5.62 0-10.146-4.299-10.146-10.174M61.378 1.393h5.452v7.982l6.773-7.982h6.464L72.62 9.852l7.7 11.214h-6.548l-4.946-7.307-1.996 2.22v5.087h-5.452zM40.834 4.126a2.834 2.834 0 1 1-5.669 0 2.834 2.834 0 0 1 5.669 0" mask="url(#d)"/>
    </g>
</svg>
