<svg xmlns="http://www.w3.org/2000/svg" width="24" height="24" viewBox="0 0 24 24">
    <g fill="#103e66" fill-rule="nonzero">
        <path d="M16.24 4H8.666A4.67 4.67 0 0 0 4 8.665v7.576a4.67 4.67 0 0 0 4.665 4.665h7.576a4.67 4.67 0 0 0 4.665-4.665V8.666A4.67 4.67 0 0 0 16.241 4zm3.166 12.24a3.17 3.17 0 0 1-3.165 3.166H8.665A3.169 3.169 0 0 1 5.5 16.241V8.665A3.17 3.17 0 0 1 8.665 5.5h7.576a3.17 3.17 0 0 1 3.165 3.165v7.576z"/>
        <path d="M12.453 8.097a4.361 4.361 0 0 0-4.356 4.356 4.361 4.361 0 0 0 4.356 4.356 4.361 4.361 0 0 0 4.356-4.356 4.361 4.361 0 0 0-4.356-4.356zm0 7.212a2.86 2.86 0 0 1-2.856-2.856 2.86 2.86 0 0 1 2.856-2.856 2.86 2.86 0 0 1 2.856 2.856 2.86 2.86 0 0 1-2.856 2.856zM16.992 6.825a1.104 1.104 0 0 0-1.1 1.1c0 .29.118.573.323.778.204.204.488.322.777.322.29 0 .573-.118.778-.322a1.105 1.105 0 0 0 0-1.556 1.105 1.105 0 0 0-.778-.322z"/>
    </g>
</svg>
