<svg xmlns="http://www.w3.org/2000/svg" width="49" height="32" viewBox="0 0 49 32">
    <g fill="#ed2724" fill-rule="evenodd">
        <path d="M38 10h5.716c.365 0 .608.128.73.385.973 1.41 1.824 2.948 2.554 4.486V15h-9v-5zm-3-2v14.918l.12-.123a6.469 6.469 0 0 1 9.052-.247c.966.986 1.57 2.096 1.931 3.329 0 0 0 .123.121.123h1.931c.603 0 .845-.247.845-.863v-8.26c-.12-.863-.362-1.727-.724-2.466-.845-1.973-1.931-3.698-3.138-5.425C44.655 8.37 44.052 8 43.208 8H35zM0 22.816v.607c0 .12.123.242.123.364C.49 24.515.982 25 1.84 25h2.455c.736-3.155 3.806-5.097 6.75-4.975 2.824.12 5.401 2.063 6.138 4.975H34V2.791c0-.85-.368-1.578-.982-2.184-.49-.365-.982-.486-1.472-.607H1.84v21.238c-.368.121-.613.121-.86.243-.49.243-.858.607-.981 1.213v.122z"/>
        <path d="M8 27c0-1.737 1.421-3 3-3 1.737 0 3 1.263 3 3 0 1.579-1.421 3-3 3s-3-1.263-3-3m-2 0c0 2.683 2.195 5 4.878 5C13.683 32 16 29.805 16 27s-2.195-5-5-5-5 2.317-5 5M37 27c0-1.737 1.421-3 3-3 1.737 0 3 1.263 3 3 0 1.579-1.421 3-3 3s-3-1.263-3-3m-2 0c0 2.683 2.195 5 4.878 5C42.682 32 45 29.805 45 27s-2.195-5-5-5-5 2.317-5 5"/>
    </g>
</svg>
