<svg xmlns="http://www.w3.org/2000/svg" xmlns:xlink="http://www.w3.org/1999/xlink" width="500" height="229" viewBox="0 0 500 229">
    <defs>
        <path id="a" d="M0 228.3h499.9V0H0z"/>
    </defs>
    <g fill="none" fill-rule="evenodd">
        <path fill="#1F191A" d="M94.6 4.8c-.8 0-1.7.2-2.7.5-1 .3-2 .8-2.8 1.3-1.1.7-2 1.5-2.6 2.4-.7.9-1.2 2.1-1.7 3.7-2.2 7.2-4.8 15.6-7.7 25.1-2.9 9.6-6.1 19.8-9.5 30.6h-4.3L46.5 17.5 29.2 68.4h-4.1c-3.1-10.9-6.3-22.2-9.6-33.8-3.3-11.7-5.5-19.5-6.6-23.5-.3-1-.7-1.8-1.2-2.6-.5-.7-1.3-1.4-2.2-2-.8-.5-1.7-.9-2.7-1.2-1-.3-2-.4-2.8-.5V1.5h26.9v3.3c-2.4.1-4.4.4-6 .7-1.7.3-2.5.9-2.5 1.7 0 .3 0 .7.1 1.2s.2.9.2 1.2c.7 2.7 2 7.3 3.8 13.6 1.8 6.3 4.5 15.7 8.1 28.3L47.1 2.3h4.6l16.7 50.2c2.2-7.7 4.2-14.5 5.8-20.2 1.6-5.8 3-10.7 4-14.8.7-2.9 1.2-4.9 1.4-5.9.2-1.1.3-2 .3-2.7 0-1.1-.7-1.9-2.2-2.7-1.4-.7-3.8-1.2-7-1.4V1.5h24v3.3h-.1zM128.5 67.6H98.7v-3.3c.8-.1 2.1-.2 3.6-.3 1.5-.1 2.7-.3 3.4-.6 1-.4 1.8-1 2.2-1.7.5-.7.7-1.7.7-2.9V11c0-1.1-.2-2-.5-2.7-.3-.7-1.1-1.3-2.4-1.8-.9-.4-2.1-.7-3.5-1-1.4-.3-2.6-.5-3.5-.6V1.6h29.8v3.3c-1 0-2.1.1-3.4.3-1.3.2-2.5.5-3.5.8-1.2.4-2 1-2.4 1.8-.4.8-.6 1.8-.6 2.8v47.8c0 1 .2 1.9.7 2.7.4.8 1.2 1.4 2.3 1.9.7.2 1.7.5 3.2.8 1.5.3 2.7.5 3.8.5v3.3h-.1zM189.7 47.9l-1.4 19.7h-51.7v-3.3c.7-.1 1.8-.2 3.2-.3 1.4-.2 2.4-.4 3-.6.9-.4 1.6-1 2-1.8.4-.8.6-1.8.6-3V11.3c0-1.1-.2-2-.5-2.8-.4-.8-1.1-1.5-2.1-2-.7-.4-1.7-.7-3-1.1-1.3-.4-2.4-.6-3.2-.6V1.5h27.9v3.3c-.9 0-2 .2-3.4.5s-2.4.5-3 .7c-1.1.4-1.8 1-2.2 1.9-.4.9-.6 1.9-.6 2.9v44.4c0 2 .1 3.6.3 4.8.2 1.1.7 2 1.4 2.6.7.6 1.8.9 3.2 1.1 1.4.2 3.4.3 5.9.3 1.1 0 2.3 0 3.6-.1 1.2-.1 2.4-.2 3.5-.4s2.1-.4 3-.8c.9-.3 1.6-.7 2-1.2 1.3-1.4 2.8-3.6 4.4-6.5 1.7-2.9 2.9-5.3 3.5-7.1h3.6zM248.5 47.9l-1.4 19.7h-51.7v-3.3c.7-.1 1.8-.2 3.2-.3 1.4-.2 2.4-.4 3-.6.9-.4 1.6-1 2-1.8.4-.8.6-1.8.6-3V11.3c0-1.1-.2-2-.5-2.8-.4-.8-1.1-1.5-2.1-2-.7-.4-1.7-.7-3-1.1-1.3-.4-2.4-.6-3.2-.6V1.5h27.9v3.3c-.9 0-2 .2-3.4.5s-2.4.5-3 .7c-1.1.4-1.8 1-2.2 1.9-.4.9-.6 1.9-.6 2.9v44.4c0 2 .1 3.6.3 4.8.2 1.1.7 2 1.4 2.6.7.6 1.8.9 3.2 1.1 1.4.2 3.4.3 5.9.3 1.1 0 2.3 0 3.6-.1 1.2-.1 2.4-.2 3.5-.4s2.1-.4 3-.8c.9-.3 1.6-.7 2-1.2 1.3-1.4 2.8-3.6 4.4-6.5 1.7-2.9 2.9-5.3 3.5-7.1h3.6zM283.7 67.6h-29.8v-3.3c.8-.1 2.1-.2 3.6-.3 1.6-.1 2.7-.3 3.4-.6 1-.4 1.8-1 2.2-1.7.5-.7.7-1.7.7-2.9V11c0-1.1-.2-2-.5-2.7-.3-.7-1.1-1.3-2.4-1.8-.9-.4-2.1-.7-3.5-1-1.4-.3-2.6-.5-3.5-.6V1.6h29.8v3.3c-1 0-2.1.1-3.4.3-1.3.2-2.5.5-3.5.8-1.2.4-2 1-2.4 1.8-.4.8-.6 1.8-.6 2.8v47.8c0 1 .2 1.9.7 2.7.5.8 1.2 1.4 2.3 1.9.7.2 1.7.5 3.2.8 1.5.3 2.7.5 3.8.5v3.3h-.1zM332.2 40.6l-10-25.7-9.9 25.7h19.9zm26.6 27h-27.5v-3.3c2.4-.2 4.4-.5 6-.9 1.6-.5 2.4-1 2.4-1.7 0-.3 0-.6-.1-1s-.2-.8-.3-1.1l-5.4-14.9h-23.2c-.9 2.2-1.6 4.1-2.1 5.7-.5 1.6-1 3.1-1.5 4.5-.4 1.3-.7 2.4-.8 3.3-.2.8-.2 1.5-.2 2 0 1.2 1 2.2 2.9 2.9 2 .7 4.2 1.1 6.6 1.2v3.3h-24.9v-3.3c.8-.1 1.8-.2 3-.5s2.2-.7 3-1.2c1.2-.8 2.2-1.7 2.9-2.6.7-.9 1.4-2.2 2-3.8 3.3-8.3 7-17.6 11-28 4-10.3 7.6-19.6 10.7-27.6h3.7l22 57c.5 1.2 1 2.2 1.6 2.9.6.7 1.4 1.5 2.5 2.2.7.4 1.6.8 2.8 1.1 1.1.3 2.1.5 2.9.5v3.3zM446.5 67.6h-29.2v-3.3c1.1 0 2.4-.1 4.1-.3 1.7-.2 2.8-.5 3.4-.8 1-.6 1.7-1.3 2.1-2 .4-.8.7-1.7.7-2.9V10.2h-.7l-22.6 56.3H402L380.5 9h-.6v39.5c0 3.8.2 6.7.7 8.7.5 2 1.2 3.4 2.2 4.3.7.7 2.1 1.3 4.2 1.9 2.1.6 3.5.9 4.2.9v3.3h-26.7v-3.3c1.4-.1 2.9-.4 4.4-.7 1.5-.3 2.7-.9 3.6-1.5 1.1-.9 1.8-2.2 2.2-4 .4-1.8.6-4.8.6-9V15.2c0-2-.2-3.6-.7-4.8-.5-1.2-1.1-2.3-2-3-1-.8-2.1-1.5-3.5-1.9-1.4-.4-2.8-.6-4.1-.7V1.5h22.5l18.9 49.6 16.2-41.5c.6-1.5 1.1-3.1 1.5-4.8.4-1.7.6-2.8.7-3.3h21.6v3.3c-.9 0-2 .2-3.3.4-1.4.2-2.3.5-3 .7-1.1.4-1.8 1-2.1 1.9-.4.9-.6 1.8-.6 2.8v47.7c0 1.1.2 2 .6 2.7.4.7 1.1 1.4 2.1 2 .6.3 1.6.6 3 .9 1.4.3 2.6.4 3.4.4v3.3zM495.8 37.3c1.4 1.6 2.4 3.3 3.1 5.1.7 1.8 1 4 1 6.5 0 5.8-2.2 10.7-6.5 14.4-4.3 3.8-9.7 5.7-16.1 5.7-3 0-5.9-.5-8.9-1.4-3-.9-5.5-2-7.6-3.3l-2 3.4h-3.7l-.6-22.7h3.8c.8 2.8 1.7 5.3 2.7 7.6 1 2.3 2.4 4.4 4.1 6.3 1.6 1.8 3.5 3.3 5.7 4.4 2.2 1.1 4.7 1.6 7.5 1.6 2.1 0 4-.3 5.6-.8 1.6-.6 2.9-1.4 3.9-2.4s1.7-2.2 2.2-3.6c.5-1.4.7-3 .7-4.8 0-2.6-.7-5.1-2.2-7.4-1.5-2.3-3.7-4-6.7-5.2-2-.8-4.3-1.7-6.9-2.7-2.6-1-4.9-1.9-6.8-2.8-3.7-1.7-6.6-3.9-8.7-6.6-2.1-2.7-3.1-6.3-3.1-10.6 0-2.5.5-4.9 1.5-7 1-2.2 2.5-4.1 4.4-5.8 1.8-1.6 3.9-2.9 6.4-3.8 2.5-.9 5-1.4 7.7-1.4 3 0 5.8.5 8.2 1.4 2.4.9 4.6 2 6.6 3.3l1.9-3.2h3.7l.4 21.9h-3.8c-.7-2.5-1.5-4.9-2.3-7.2-.9-2.3-2-4.4-3.3-6.2-1.3-1.8-3-3.2-4.9-4.3-1.9-1.1-4.3-1.6-7.1-1.6-3 0-5.5.9-7.5 2.8-2.1 1.9-3.1 4.2-3.1 6.9 0 2.9.7 5.2 2 7.1 1.3 1.9 3.3 3.4 5.8 4.6 2.3 1.1 4.5 2 6.7 2.8 2.2.8 4.3 1.6 6.4 2.5 1.9.8 3.7 1.7 5.4 2.7 1.6 1.2 3.1 2.4 4.4 3.8M99.5 129c1.4 1.6 2.4 3.3 3.1 5.1.7 1.8 1 4 1 6.5 0 5.8-2.2 10.7-6.5 14.4-4.3 3.8-9.7 5.7-16.1 5.7-3 0-5.9-.5-8.9-1.4-3-.9-5.5-2-7.6-3.3l-2 3.4h-3.7l-.7-22.6h3.8c.8 2.8 1.7 5.3 2.7 7.6 1 2.3 2.4 4.4 4.1 6.3 1.6 1.8 3.5 3.3 5.7 4.4 2.2 1.1 4.7 1.6 7.5 1.6 2.1 0 4-.3 5.6-.8 1.6-.6 2.9-1.4 3.9-2.4s1.7-2.2 2.2-3.6c.5-1.4.7-3 .7-4.8 0-2.6-.7-5.1-2.2-7.4-1.5-2.3-3.7-4-6.7-5.2-2-.8-4.3-1.7-6.9-2.7-2.6-1-4.9-1.9-6.8-2.8-3.7-1.7-6.6-3.9-8.7-6.6-2.1-2.7-3.1-6.3-3.1-10.6 0-2.5.5-4.9 1.5-7 1-2.2 2.5-4.1 4.4-5.8 1.8-1.6 3.9-2.9 6.4-3.8 2.5-.9 5-1.4 7.7-1.4 3 0 5.8.5 8.2 1.4 2.4.9 4.6 2 6.6 3.3l1.9-3.2h3.7l.4 21.9h-3.8c-.7-2.5-1.5-4.9-2.3-7.2-.9-2.3-2-4.4-3.3-6.2-1.3-1.8-3-3.2-4.9-4.3-1.9-1.1-4.3-1.6-7.1-1.6-3 0-5.5.9-7.5 2.8-2.1 1.9-3.1 4.2-3.1 6.9 0 2.9.7 5.2 2 7.1 1.3 1.9 3.3 3.4 5.8 4.6 2.3 1.1 4.5 2 6.7 2.8 2.2.8 4.3 1.6 6.4 2.5 1.9.8 3.7 1.7 5.4 2.8 1.7 1.1 3.2 2.3 4.5 3.6M157.3 148c1.7-2.8 3-6 3.8-9.6.8-3.6 1.2-7.6 1.2-12 0-4.5-.4-8.7-1.3-12.5-.9-3.8-2.2-7-3.9-9.7-1.7-2.6-3.9-4.7-6.4-6.2-2.6-1.5-5.5-2.2-8.9-2.2-3.7 0-6.9.9-9.5 2.6-2.6 1.7-4.7 4-6.4 6.8-1.6 2.7-2.7 5.9-3.5 9.6-.8 3.7-1.1 7.5-1.1 11.6 0 4.5.4 8.5 1.2 12.1.8 3.6 2.1 6.8 3.8 9.6 1.7 2.7 3.8 4.9 6.3 6.4s5.6 2.3 9.1 2.3c3.3 0 6.3-.8 9-2.3 2.8-1.6 4.9-3.7 6.6-6.5m7-46.9c2.9 3 5.2 6.7 6.8 11 1.6 4.3 2.5 9.1 2.5 14.3 0 5.2-.8 10-2.5 14.3-1.7 4.3-4 7.9-7 10.9-2.9 3-6.2 5.3-10.1 6.9-3.8 1.6-7.9 2.4-12.2 2.4-4.6 0-8.8-.9-12.7-2.6-3.9-1.7-7.2-4.1-10-7.2-2.8-3-5-6.7-6.6-11-1.6-4.3-2.4-8.9-2.4-13.8 0-5.4.8-10.2 2.5-14.4 1.7-4.2 4-7.8 6.9-10.9 2.9-3 6.3-5.4 10.2-7 3.9-1.6 7.9-2.4 12.1-2.4 4.4 0 8.5.8 12.4 2.5 3.9 1.7 7.2 4 10.1 7"/>
        <path fill="#1F191A" d="M244.5 96.6c-.9 0-2.2.3-4 .7-1.8.5-3.1.9-3.9 1.4-1.1.8-1.9 2.3-2.3 4.5-.4 2.2-.6 5-.6 8.4V160h-4.1l-40.1-54.1V140c0 3.8.2 6.8.7 8.8.5 2 1.2 3.5 2.2 4.4.7.7 2.2 1.3 4.4 1.9 2.2.6 3.7.9 4.4.9v3.3h-27.1V156c.8-.1 2.3-.4 4.2-.9 2-.5 3.2-1 3.7-1.5 1.1-.9 1.8-2.2 2.2-4 .4-1.8.6-4.8.6-9.2V108c0-1.4-.2-2.9-.7-4.3-.5-1.4-1.2-2.5-2-3.3-1.1-1-2.6-1.9-4.5-2.6-1.9-.7-3.5-1.1-4.6-1.2v-3.3h18.9l37.2 50.4v-31.4c0-3.8-.2-6.8-.7-8.9-.5-2.1-1.2-3.4-2.1-4.1-.9-.6-2.3-1.2-4.3-1.7-2-.6-3.5-.9-4.5-.9v-3.3h26.9v3.2h.1zM291.1 148c1.7-2.8 3-6 3.8-9.6.8-3.6 1.2-7.6 1.2-12 0-4.5-.4-8.7-1.3-12.5-.9-3.8-2.2-7-3.9-9.7-1.7-2.6-3.9-4.7-6.4-6.2-2.6-1.5-5.5-2.2-8.9-2.2-3.7 0-6.9.9-9.5 2.6-2.6 1.7-4.7 4-6.4 6.8-1.6 2.7-2.7 5.9-3.5 9.6-.8 3.7-1.1 7.5-1.1 11.6 0 4.5.4 8.5 1.2 12.1.8 3.6 2.1 6.8 3.8 9.6 1.7 2.7 3.8 4.9 6.3 6.4s5.6 2.3 9.1 2.3c3.3 0 6.3-.8 9-2.3 2.8-1.6 4.9-3.7 6.6-6.5m7-46.9c2.9 3 5.2 6.7 6.8 11 1.6 4.3 2.5 9.1 2.5 14.3 0 5.2-.8 10-2.5 14.3-1.7 4.3-4 7.9-7 10.9-2.9 3-6.2 5.3-10.1 6.9-3.8 1.6-7.9 2.4-12.2 2.4-4.6 0-8.8-.9-12.7-2.6-3.9-1.7-7.2-4.1-10-7.2-2.8-3-5-6.7-6.6-11-1.6-4.3-2.4-8.9-2.4-13.8 0-5.4.8-10.2 2.5-14.4 1.7-4.2 4-7.8 6.9-10.9 2.9-3 6.3-5.4 10.2-7 3.9-1.6 7.9-2.4 12.1-2.4 4.4 0 8.5.8 12.4 2.5 3.9 1.7 7.2 4 10.1 7M389.7 159.4h-29.2v-3.3c1.1 0 2.4-.1 4.1-.3 1.7-.2 2.8-.5 3.4-.8 1-.6 1.7-1.3 2.1-2 .5-.8.7-1.7.7-2.9V102h-.7l-22.6 56.3h-2.3l-21.5-57.5h-.6v39.5c0 3.8.2 6.7.7 8.7.5 2 1.2 3.4 2.2 4.3.7.7 2.1 1.3 4.2 1.9 2.1.6 3.5.9 4.2.9v3.3h-26.7v-3.3c1.4-.1 2.9-.4 4.4-.7 1.5-.3 2.7-.9 3.6-1.5 1.1-.9 1.8-2.2 2.2-4 .4-1.8.6-4.8.6-9V107c0-2-.2-3.6-.7-4.8-.5-1.2-1.1-2.3-2-3-1-.8-2.1-1.5-3.5-1.9-1.4-.4-2.8-.6-4.1-.7v-3.3h22.5l18.9 49.6 16.2-41.5c.6-1.5 1.1-3.1 1.5-4.8.4-1.7.6-2.8.7-3.3h21.6v3.3c-.9 0-2 .2-3.3.4-1.4.2-2.3.5-3 .7-1.1.4-1.8 1-2.1 1.9-.4.9-.6 1.8-.6 2.8v47.7c0 1.1.2 2 .6 2.8.4.7 1.1 1.4 2.1 2 .6.3 1.6.6 3 .9 1.4.3 2.6.4 3.4.4v3.2zM435.5 132.4l-10-25.7-9.9 25.7h19.9zm26.6 27h-27.5v-3.3c2.4-.2 4.4-.5 6-.9 1.6-.5 2.4-1 2.4-1.7 0-.3 0-.6-.1-1s-.2-.8-.3-1.1l-5.5-14.8h-23.2c-.9 2.2-1.6 4.1-2.1 5.7-.5 1.6-1 3.1-1.5 4.5-.4 1.3-.7 2.4-.8 3.3-.2.8-.2 1.5-.2 2 0 1.2 1 2.2 2.9 2.9 2 .7 4.2 1.1 6.6 1.2v3.3h-24.9v-3.3c.8-.1 1.8-.2 3-.5s2.2-.7 3-1.2c1.2-.8 2.2-1.7 2.9-2.6.7-.9 1.3-2.2 2-3.8 3.3-8.3 7-17.6 11-28 4-10.3 7.6-19.6 10.7-27.6h3.7l22 57c.5 1.2 1 2.2 1.6 2.9.6.7 1.4 1.5 2.5 2.2.7.4 1.6.8 2.8 1.1 1.1.3 2.1.5 2.9.5v3.2h.1z"/>
        <mask id="b" fill="#fff">
            <use xlink:href="#a"/>
        </mask>
        <path fill="#1F191A" d="M92 186.4h315.8v-2.1H92zM150.1 212.6c-.3-.2-.6-.4-1-.7-.6-.4-1.9-1.2-3.8-1.2-2.2 0-4.5 1.1-5.8 2.8-1.3 1.7-1.4 3.7-1.4 4.5 0 .5.1 1.9.7 3.2 1.1 2.5 3.8 4 6.5 4 1.9 0 3.2-.7 4.7-1.8v3.2c-.9.4-2.4 1.2-4.8 1.2-1.2 0-4-.2-6.6-2.4-1.2-1-3.3-3.4-3.3-7.5 0-2.5.8-4.9 2.4-6.6 1.9-2 4.8-3.3 7.6-3.3 1.8 0 3.1.5 4.8 1.2v3.4zM165.7 220.5h6.1l-2.9-6.8-3.2 6.8zm12.1 7.1h-3l-1.9-4.7h-8.3l-2.2 4.6h-3l9.7-20.3 8.7 20.4zM191.1 208.4V225h5.9v2.6h-8.6v-19.2zM211 227.6h2.8v-19.2H211zM238 208.4v2.7h-6.7v4.7h6.6v2.6h-6.7v9.2h-2.8v-19.2zM252.3 222.4c1.4 1.7 3.5 2.7 5.7 2.7.8 0 2.7-.1 4.5-1.5 1.7-1.3 2.8-3.4 2.8-5.6 0-1.4-.4-2.5-.6-2.9-1.2-2.7-3.8-4.3-6.7-4.3-1.6 0-3.2.5-4.5 1.5-.8.6-2.6 2.4-2.8 5.3 0 1.7.6 3.5 1.6 4.8m-1.5-11.3c1.9-2 4.6-3.1 7.3-3.1 3.2 0 5.5 1.5 6.4 2.2 2.3 1.8 3.7 4.7 3.7 7.7 0 .7-.1 2.1-.8 3.7-1.6 3.8-5.2 6.1-9.3 6.1-3.2 0-5.6-1.6-6.5-2.3-2.3-1.9-3.6-4.8-3.5-7.9 0-2.2 1-4.6 2.7-6.4M281.4 211v6h2.2c1.3-.1 2.3-.2 3-1.3.2-.3.5-1 .5-2 0-.3-.1-1.5-.9-2.2-.6-.5-1.4-.5-2.1-.6h-2.7v.1zm7 16.6l-5.9-8.2h-1.2v8.2h-2.7v-19.2h5.6c1.3.1 2.6.2 3.7 1 1.4 1 2 2.8 2 4.4 0 .8-.2 3.4-2.4 4.8-.4.3-.8.4-1.7.7.9 1.3 1.8 2.6 2.7 3.8.7 1 1.4 1.9 2.1 2.8.4.6.8 1.2 1.2 1.7h-3.4zM316.3 208.4h2.8v19.9c-2.2-2.2-4.4-4.4-6.6-6.7-1.3-1.3-2.6-2.6-3.9-4-1.3-1.4-2.6-2.8-3.9-4.3.1.9.1 1.9.2 2.8 0 .8 0 1.6.1 2.5v8.9h-2.8V207c2.7 2.7 5.4 5.3 8 8l6.3 6.6c-.1-.6-.1-1.2-.1-1.8 0-.5 0-1.1-.1-1.6v-9.8zM332.8 227.6h2.8v-19.2h-2.8zM352.4 220.5h6.1l-2.9-6.8-3.2 6.8zm12.1 7.1h-3l-1.9-4.7h-8.3l-2.2 4.6h-3l9.7-20.3 8.7 20.4z" mask="url(#b)"/>
    </g>
</svg>
