<svg xmlns="http://www.w3.org/2000/svg" xmlns:xlink="http://www.w3.org/1999/xlink" width="196" height="43" viewBox="0 0 196 43">
    <defs>
        <path id="a" d="M0 .507h122.69v24.41H0z"/>
    </defs>
    <g fill="none" fill-rule="evenodd">
        <path fill="#B40000" d="M180.76 12.096h7.58c.484 0 .806.16.968.484 1.29 1.774 2.419 3.709 3.387 5.644v.162H180.76v-6.29zm-3.548-2.097v19.515l.16-.161c3.388-3.387 8.71-3.387 12.097-.323 1.29 1.29 2.097 2.742 2.58 4.355 0 0 0 .16.162.16h2.58c.806 0 1.129-.322 1.129-1.128V21.61c-.161-1.13-.484-2.258-.968-3.225-1.13-2.581-2.58-4.838-4.193-7.097-.645-.806-1.451-1.29-2.58-1.29H177.212zM131.731 30.32v.807c0 .161.161.322.161.484.484.967 1.129 1.612 2.258 1.612h3.226c.967-4.193 5-6.774 8.87-6.612a8.73 8.73 0 0 1 8.064 6.612h22.095V3.71c0-1.129-.484-2.097-1.29-2.903-.645-.484-1.29-.645-1.935-.806h-39.03V28.224c-.483.161-.806.161-1.129.322-.645.323-1.129.807-1.29 1.613v.161z"/>
        <path fill="#B40000" d="M141.833 35.481c0-2.275 1.861-3.929 3.929-3.929 2.275 0 3.929 1.654 3.929 3.93 0 2.067-1.861 3.928-3.929 3.928-2.068 0-3.929-1.654-3.929-3.929m-2.683 0c0 3.548 2.903 6.612 6.451 6.612 3.71 0 6.774-2.903 6.774-6.612s-2.903-6.612-6.613-6.612c-3.709 0-6.612 3.064-6.612 6.612M179.775 35.481c0-2.275 1.86-3.929 3.929-3.929 2.275 0 3.929 1.654 3.929 3.93 0 2.067-1.861 3.928-3.93 3.928-2.067 0-3.928-1.654-3.928-3.929m-2.683 0c0 3.548 2.903 6.612 6.45 6.612 3.71 0 6.775-2.903 6.775-6.612s-2.903-6.612-6.613-6.612c-3.71 0-6.612 3.064-6.612 6.612M120.835 17.797l-.142-.99 19.69-2.813-18.439-3.911.207-.978 23.957 5.082zM72.43 9.19H70.7v3.459h1.689c.669 0 1.166-.142 1.493-.424.326-.283.489-.702.489-1.256 0-.544-.165-.976-.493-1.297-.33-.321-.812-.481-1.448-.481M46.17 9.044c-.804 0-1.43.296-1.88.889-.448.592-.672 1.35-.672 2.275v2.153c0 .94.226 1.707.677 2.3.45.592 1.082.889 1.892.889.816 0 1.452-.297 1.908-.89.457-.592.685-1.358.685-2.3v-2.152c0-.924-.231-1.683-.693-2.275-.462-.593-1.101-.89-1.916-.89"/>
        <g transform="translate(0 .094)">
            <mask id="b" fill="#fff">
                <use xlink:href="#a"/>
            </mask>
            <path fill="#B40000" d="M117.552 15.281a2.57 2.57 0 1 1 .001-5.14 2.57 2.57 0 0 1-.001 5.14zm-6.826 3.145c-.794.587-1.843.881-3.148.881-1.277 0-2.374-.318-3.29-.954-.916-.636-1.361-1.585-1.334-2.846l.017-.049h2.308c0 .701.206 1.218.62 1.55.413.331.972.497 1.679.497.637 0 1.12-.134 1.456-.4.334-.266.5-.622.5-1.069 0-.456-.157-.823-.476-1.1-.318-.278-.876-.538-1.675-.783-1.371-.414-2.41-.9-3.12-1.46-.71-.56-1.064-1.324-1.064-2.29 0-.975.4-1.769 1.199-2.387.799-.617 1.819-.925 3.058-.925 1.316 0 2.374.331 3.177.995.8.663 1.189 1.533 1.162 2.61l-.017.048h-2.308c0-.592-.18-1.048-.538-1.366-.36-.318-.861-.477-1.508-.477-.588 0-1.042.141-1.362.424a1.378 1.378 0 0 0-.482 1.085c0 .402.174.732.522.991.348.258.949.531 1.803.82 1.304.37 2.299.852 2.984 1.447.685.595 1.028 1.38 1.028 2.352 0 1.017-.397 1.82-1.191 2.406zm-12.118.71h2.38V7.26h-2.38v11.874zM97.14 9.096h-3.393v10.038h-2.381V9.097h-3.343V7.262h9.117v1.835zM85.959 19.135l-.807-2.56h-3.85l-.798 2.56h-2.488L82.02 7.262h2.439l3.988 11.873h-2.488zm-8.538 0h-2.454c-.218-.173-.358-.46-.421-.864a7.657 7.657 0 0 1-.094-1.166v-.84c0-.592-.161-1.053-.484-1.382-.324-.329-.782-.494-1.375-.494H70.7v4.746H68.32V7.262h4.11c1.354 0 2.413.31 3.177.925.763.617 1.145 1.478 1.145 2.581 0 .61-.161 1.136-.485 1.578-.323.444-.795.801-1.415 1.073.7.207 1.206.552 1.513 1.035.307.485.46 1.082.46 1.795v.872c0 .332.045.68.135 1.04.09.362.243.63.46.803v.171zm-11.123-1.623c-.371.485-.922.905-1.656 1.261-.734.356-1.68.534-2.838.534-1.435 0-2.61-.45-3.523-1.354-.913-.902-1.37-2.074-1.37-3.515V11.96c0-1.435.443-2.605 1.329-3.51.886-.906 2.025-1.358 3.417-1.358 1.452 0 2.563.343 3.335 1.031.772.688 1.145 1.605 1.118 2.753l-.016.05H63.85c0-.632-.182-1.123-.547-1.474-.364-.35-.894-.525-1.59-.525-.728 0-1.315.281-1.761.843-.446.563-.67 1.288-.67 2.174v2.495c0 .897.229 1.63.686 2.194.457.566 1.068.848 1.835.848.565 0 1.013-.057 1.342-.17.328-.115.583-.259.762-.433v-2.3h-2.283V12.93h4.673v4.583zm-15.144-3.245c0 1.463-.46 2.668-1.378 3.617-.92.948-2.116 1.423-3.59 1.423-1.467 0-2.657-.476-3.571-1.427-.913-.952-1.37-2.156-1.37-3.613v-2.136c0-1.452.455-2.655 1.367-3.609.91-.954 2.096-1.43 3.559-1.43 1.473 0 2.672.476 3.596 1.43.925.954 1.387 2.157 1.387 3.61v2.135zM38.88 6.088h-2.03l1.622-2.17h2.65l.017.05-2.26 2.12zm-2.071 13.047h2.38V7.261h-2.38v11.874zm-5.35 0h-2.447L24.984 7.262h2.512l2.569 8.652.146.653h.049l.139-.628 2.585-8.677h2.512l-4.037 11.873zm-7.625 0h-2.381l-4.787-8.008-.05.008v8h-2.38V7.262h2.38l4.788 8 .049-.008V7.262h2.38v11.873zm-11.27 0H4.948V7.262h7.6v1.835h-5.22v2.984h4.405v1.835H7.329v3.393h5.235v1.826zM110.486.507H0v24.41h109.844l12.847-7.067V8.857L110.486.507z" mask="url(#b)"/>
        </g>
        <path fill="#B40000" d="M83.21 10.617l-1.32 4.184h2.682l-1.313-4.184z"/>
    </g>
</svg>
