<svg xmlns="http://www.w3.org/2000/svg" xmlns:xlink="http://www.w3.org/1999/xlink" width="487" height="86" viewBox="0 0 487 86">
    <defs>
        <path id="a" d="M.515.62h75.99v61.01H.515z"/>
        <path id="c" d="M0 .58h71.967V63H0z"/>
    </defs>
    <g fill="none" fill-rule="evenodd">
        <path fill="#292727" d="M114.288 29.923c5.56 0 13.396 4.456 13.396 11.636 0 5.075-.505 5.694-1.895 5.694-.506 0-23.634.124-25.909.124-1.517 0-1.643-.743-1.643-2.228 0-6.066 5.814-15.226 16.05-15.226M99.502 54.557l30.205-.124c2.402 0 4.297-.742 5.056-2.847.758-2.847 1.516-5.2 1.137-10.77C135.014 26.21 122.503 22 114.667 22 97.73 22 88 35.988 88 54.805c0 10.522 2.022 15.845 6.572 22.282C99.122 83.524 107.463 86 114.414 86c6.825 0 18.326-4.085 20.727-6.809.505-.495.505-2.228.126-3.96-.253-1.486-.884-3.59-2.022-3.22-1.896.743-7.583 5.447-17.82 5.571-17.567 0-17.82-16.464-17.946-19.806-.127-3.095.379-3.219 2.022-3.219M181.992 50.486c-5.378-2.467-13.006-4.07-13.006-11.345 0-6.29 6.003-9.249 10.13-9.249 2.626 0 6.127.863 9.754 2.22 3.626 1.48 3.501.246 4.877-2.097 1-1.726 1.375-3.206.875-3.699-2.25-1.85-8.379-4.316-15.507-4.316-12.88 0-19.508 8.015-19.508 17.14 0 8.756 7.503 14.182 14.506 17.388 7.253 3.206 14.507 5.672 14.507 11.715 0 3.946-3.502 9.742-10.88 9.742-6.128 0-12.506-3.577-14.632-4.686-1.25-.617-1.75.74-2.626 2.59-1.125 2.466-2 4.192-1.125 4.808C163.859 83.41 171.362 86 177.615 86c11.505 0 20.509-6.906 20.384-18.004.125-11.591-10.63-15.044-16.007-17.51M252.636 75.34c-1.888.753-3.524 2.007-8.432 2.007-8.934 0-10.948-7.023-10.948-12.792V32.576c0-1.254.504-1.63 2.14-1.63h17.114c.63 0 .503-1.129.503-4.013s.126-4.264-.88-4.264h-16.737c-1.51 0-2.14-.501-2.14-2.633V4.986c0-2.382-.251-2.382-4.153-1.253-4.278 1.254-4.278 1.254-4.278 3.01v13.293c0 1.63-.378 2.633-2.265 2.633h-6.418c-1.51 0-1.133 1.756-1.007 4.139 0 2.508 0 4.138 1.007 4.138l6.67-.125c1.258.125 2.013.125 2.013 1.505v26.837c0 15.425 2.14 18.81 5.537 22.322 3.398 3.512 8.18 4.515 11.577 4.515 3.398 0 8.306-1.38 11.578-2.759 1.636-.752 1.761-1.254 1.132-4.765-.63-3.386-1.007-3.512-2.013-3.136M383.998 2.116c0-1.37-.25-2.116-1.625-2.116L368.88.249c-1 0-.875.871-.875 3.609 0 2.116-.125 3.36.875 3.36 5.247 0 6.871 2.365 6.871 5.725v70.189c0 1.866-.374 1.866 3.998 1.866 4.498 0 4.249.125 4.249-1.866V2.116z"/>
        <g transform="translate(410 24)">
            <mask id="b" fill="#fff">
                <use xlink:href="#a"/>
            </mask>
            <path fill="#292727" d="M60.348.62c-8.836 0-13.507 4.34-16.662 7.688-1.389 1.488-1.767 2.232-2.399 2.108-.63 0-.883-.744-1.514-1.984C39.14 7.192 36.112.868 27.15.868c-8.71 0-14.012 5.084-16.915 7.812-.631.62-1.767.992-1.767-.248v-4.96c0-1.984-.505-1.984-3.787-1.984-3.156 0-4.166 0-4.166 1.984V60.14c0 1.488 1.01 1.488 4.166 1.488 2.524 0 4.04.124 4.04-1.488V31.868c0-13.888 6.69-22.94 15.273-22.94 8.71 0 10.225 7.564 10.225 13.516v37.944c0 1.736 1.514 1.116 3.913 1.116 2.398 0 4.165.496 4.165-1.116v-28.52c0-13.888 6.438-22.94 16.41-22.94 7.448 0 9.594 5.952 9.594 11.904v38.936c0 1.984.63 1.86 3.913 1.86 3.282 0 4.291-.248 4.291-1.86V18.724C76.253 7.316 69.563.62 60.348.62" mask="url(#b)"/>
        </g>
        <g transform="translate(0 23)">
            <mask id="d" fill="#fff">
                <use xlink:href="#c"/>
            </mask>
            <path fill="#292727" d="M68.439.988c-3.403 0-4.285-.247-4.915 1.112-.252.494-8.695 43.359-8.695 43.359-.379 1.235-.63 1.853-1.26 1.853-.757 0-1.009-.37-1.26-1.483L40.083 2.594c-.252-1.235-.882-1.73-3.78-1.73-3.025 0-3.655.248-4.033 1.73L20.425 45.83c-.378 1.112-.63 1.483-1.386 1.483-.63 0-1.008-1.236-1.26-2.594L8.328 1.853C7.823.247 6.94.618 3.917.618.892.618-.116.74.01 2.47c0 .74 12.98 55.094 13.61 57.317.63 2.47 1.513 3.212 5.041 3.212 4.159 0 4.663-1.73 5.167-3.212l11.09-38.912c.378-1.111.378-1.729 1.26-1.729.756 0 .882.618 1.26 1.73l11.09 38.911c.63 1.483 1.134 3.212 5.166 3.212 3.529 0 4.411-.741 5.041-3.212.504-2.223 13.232-57.07 13.232-57.688C71.841.741 70.707.988 68.44.988" mask="url(#d)"/>
        </g>
        <path fill="#292727" d="M329.288 29.923c5.56 0 13.396 4.456 13.396 11.636 0 5.075-.505 5.694-1.895 5.694-.506 0-23.634.124-25.909.124-1.517 0-1.643-.743-1.643-2.228 0-6.066 5.814-15.226 16.05-15.226m-14.786 24.634l30.205-.124c2.402 0 4.297-.742 5.056-2.847.758-2.847 1.516-5.2 1.137-10.77C350.014 26.21 337.503 22 329.667 22 312.73 22 303 35.988 303 54.805c0 10.522 2.022 15.845 6.572 22.282 4.55 6.437 12.891 8.913 19.842 8.913 6.825 0 18.326-4.085 20.727-6.809.505-.495.505-2.228.126-3.96-.253-1.486-.884-3.59-2.022-3.22-1.896.743-7.583 5.447-17.82 5.571-17.567.124-17.82-16.464-17.946-19.806-.127-3.095.379-3.219 2.022-3.219"/>
    </g>
</svg>
